<mxfile host="app.diagrams.net" agent="Mozilla/5.0 (Macintosh; Intel Mac OS X 10_15_7) AppleWebKit/605.1.15 (KHTML, like Gecko) Version/17.5 Safari/605.1.15" version="24.7.6">
  <diagram name="Página-1" id="ietrwboAWjoK2SEABheK">
    <mxGraphModel dx="1736" dy="1190" grid="1" gridSize="10" guides="1" tooltips="1" connect="1" arrows="1" fold="1" page="1" pageScale="1" pageWidth="827" pageHeight="1169" math="0" shadow="0">
      <root>
        <mxCell id="0" />
        <mxCell id="1" parent="0" />
        <mxCell id="X8teT1f3it2O9fZ0N6ZG-63" value="" style="rounded=0;whiteSpace=wrap;html=1;dashed=1;strokeColor=#007FFF;" vertex="1" parent="1">
          <mxGeometry x="490" y="690" width="980" height="720" as="geometry" />
        </mxCell>
        <mxCell id="X8teT1f3it2O9fZ0N6ZG-7" style="edgeStyle=orthogonalEdgeStyle;rounded=0;orthogonalLoop=1;jettySize=auto;html=1;exitX=1;exitY=0.5;exitDx=0;exitDy=0;exitPerimeter=0;" edge="1" parent="1" source="X8teT1f3it2O9fZ0N6ZG-73">
          <mxGeometry relative="1" as="geometry">
            <mxPoint x="1000" y="520" as="targetPoint" />
            <mxPoint x="414" y="439.9999999999999" as="sourcePoint" />
          </mxGeometry>
        </mxCell>
        <mxCell id="X8teT1f3it2O9fZ0N6ZG-48" style="edgeStyle=orthogonalEdgeStyle;rounded=0;orthogonalLoop=1;jettySize=auto;html=1;entryX=0;entryY=0.5;entryDx=0;entryDy=0;" edge="1" parent="1" source="X8teT1f3it2O9fZ0N6ZG-35" target="X8teT1f3it2O9fZ0N6ZG-66">
          <mxGeometry relative="1" as="geometry">
            <mxPoint x="1000" y="440" as="targetPoint" />
            <mxPoint x="300" y="520" as="sourcePoint" />
            <Array as="points" />
          </mxGeometry>
        </mxCell>
        <mxCell id="X8teT1f3it2O9fZ0N6ZG-6" value="Repositório&lt;div&gt;&lt;div&gt;Codebase&lt;/div&gt;&lt;/div&gt;" style="verticalLabelPosition=bottom;html=1;verticalAlign=top;align=center;strokeColor=none;fillColor=#00BEF2;shape=mxgraph.azure.github_code;pointerEvents=1;" vertex="1" parent="1">
          <mxGeometry x="150" y="480" width="80" height="80" as="geometry" />
        </mxCell>
        <mxCell id="X8teT1f3it2O9fZ0N6ZG-11" style="edgeStyle=orthogonalEdgeStyle;rounded=0;orthogonalLoop=1;jettySize=auto;html=1;" edge="1" parent="1">
          <mxGeometry relative="1" as="geometry">
            <mxPoint x="1000" y="40" as="targetPoint" />
            <mxPoint x="230" y="40" as="sourcePoint" />
            <Array as="points" />
          </mxGeometry>
        </mxCell>
        <mxCell id="X8teT1f3it2O9fZ0N6ZG-53" style="edgeStyle=orthogonalEdgeStyle;rounded=0;orthogonalLoop=1;jettySize=auto;html=1;exitX=1;exitY=0;exitDx=0;exitDy=0;" edge="1" parent="1" source="X8teT1f3it2O9fZ0N6ZG-16">
          <mxGeometry relative="1" as="geometry">
            <mxPoint x="1001.6666666666666" y="120" as="targetPoint" />
            <Array as="points">
              <mxPoint x="240" y="40" />
              <mxPoint x="240" y="120" />
            </Array>
          </mxGeometry>
        </mxCell>
        <mxCell id="X8teT1f3it2O9fZ0N6ZG-55" style="edgeStyle=orthogonalEdgeStyle;rounded=0;orthogonalLoop=1;jettySize=auto;html=1;exitX=1;exitY=0;exitDx=0;exitDy=0;" edge="1" parent="1" source="X8teT1f3it2O9fZ0N6ZG-16">
          <mxGeometry relative="1" as="geometry">
            <mxPoint x="1000" y="200" as="targetPoint" />
            <Array as="points">
              <mxPoint x="240" y="40" />
              <mxPoint x="240" y="200" />
            </Array>
          </mxGeometry>
        </mxCell>
        <mxCell id="X8teT1f3it2O9fZ0N6ZG-16" value="&lt;span style=&quot;background-color: rgb(251, 251, 251);&quot;&gt;Repositório&lt;/span&gt;&lt;div&gt;de releases&lt;/div&gt;" style="shape=image;html=1;verticalAlign=top;verticalLabelPosition=bottom;labelBackgroundColor=#ffffff;imageAspect=0;aspect=fixed;image=https://cdn1.iconfinder.com/data/icons/ionicons-sharp-vol-2/512/rocket-sharp-128.png" vertex="1" parent="1">
          <mxGeometry x="145" y="40" width="80" height="80" as="geometry" />
        </mxCell>
        <mxCell id="X8teT1f3it2O9fZ0N6ZG-21" value="release/desenv" style="text;html=1;align=center;verticalAlign=middle;resizable=0;points=[];autosize=1;strokeColor=none;fillColor=none;" vertex="1" parent="1">
          <mxGeometry x="262.4" y="205" width="100" height="30" as="geometry" />
        </mxCell>
        <mxCell id="X8teT1f3it2O9fZ0N6ZG-22" value="release/homolog" style="text;html=1;align=center;verticalAlign=middle;resizable=0;points=[];autosize=1;strokeColor=none;fillColor=none;" vertex="1" parent="1">
          <mxGeometry x="261.6" y="123" width="110" height="30" as="geometry" />
        </mxCell>
        <mxCell id="X8teT1f3it2O9fZ0N6ZG-23" value="release/prod" style="text;html=1;align=center;verticalAlign=middle;resizable=0;points=[];autosize=1;strokeColor=none;fillColor=none;" vertex="1" parent="1">
          <mxGeometry x="260.6" y="40" width="90" height="30" as="geometry" />
        </mxCell>
        <mxCell id="X8teT1f3it2O9fZ0N6ZG-24" value="" style="image;aspect=fixed;html=1;points=[];align=center;fontSize=12;image=img/lib/azure2/general/Branch.svg;" vertex="1" parent="1">
          <mxGeometry x="249.6" y="45" width="20" height="20" as="geometry" />
        </mxCell>
        <mxCell id="X8teT1f3it2O9fZ0N6ZG-25" value="" style="image;aspect=fixed;html=1;points=[];align=center;fontSize=12;image=img/lib/azure2/general/Branch.svg;" vertex="1" parent="1">
          <mxGeometry x="249.6" y="128" width="20" height="20" as="geometry" />
        </mxCell>
        <mxCell id="X8teT1f3it2O9fZ0N6ZG-26" value="" style="image;aspect=fixed;html=1;points=[];align=center;fontSize=12;image=img/lib/azure2/general/Branch.svg;" vertex="1" parent="1">
          <mxGeometry x="248.80000000000004" y="210" width="20" height="20" as="geometry" />
        </mxCell>
        <mxCell id="X8teT1f3it2O9fZ0N6ZG-28" value="" style="image;aspect=fixed;html=1;points=[];align=center;fontSize=12;image=img/lib/azure2/general/Branch.svg;" vertex="1" parent="1">
          <mxGeometry x="248.8" y="535" width="20" height="20" as="geometry" />
        </mxCell>
        <mxCell id="X8teT1f3it2O9fZ0N6ZG-31" value="HEAD" style="text;html=1;align=center;verticalAlign=middle;resizable=0;points=[];autosize=1;strokeColor=none;fillColor=none;" vertex="1" parent="1">
          <mxGeometry x="257.2" y="530" width="60" height="30" as="geometry" />
        </mxCell>
        <mxCell id="X8teT1f3it2O9fZ0N6ZG-32" value="" style="image;aspect=fixed;html=1;points=[];align=center;fontSize=12;image=img/lib/azure2/general/Branch.svg;" vertex="1" parent="1">
          <mxGeometry x="349.59999999999997" y="455" width="20" height="20" as="geometry" />
        </mxCell>
        <mxCell id="X8teT1f3it2O9fZ0N6ZG-33" value="feature/1" style="text;html=1;align=center;verticalAlign=middle;resizable=0;points=[];autosize=1;strokeColor=none;fillColor=none;" vertex="1" parent="1">
          <mxGeometry x="360.2" y="450" width="70" height="30" as="geometry" />
        </mxCell>
        <mxCell id="X8teT1f3it2O9fZ0N6ZG-58" style="edgeStyle=orthogonalEdgeStyle;rounded=0;orthogonalLoop=1;jettySize=auto;html=1;entryX=0.5;entryY=1;entryDx=0;entryDy=0;" edge="1" parent="1" source="X8teT1f3it2O9fZ0N6ZG-39" target="X8teT1f3it2O9fZ0N6ZG-57">
          <mxGeometry relative="1" as="geometry">
            <Array as="points">
              <mxPoint x="505" y="160" />
              <mxPoint x="605" y="160" />
            </Array>
          </mxGeometry>
        </mxCell>
        <mxCell id="X8teT1f3it2O9fZ0N6ZG-39" value="1.0.1-rc" style="rounded=1;whiteSpace=wrap;html=1;" vertex="1" parent="1">
          <mxGeometry x="470" y="180" width="70" height="40" as="geometry" />
        </mxCell>
        <mxCell id="X8teT1f3it2O9fZ0N6ZG-49" value="" style="edgeStyle=orthogonalEdgeStyle;rounded=0;orthogonalLoop=1;jettySize=auto;html=1;" edge="1" parent="1" target="X8teT1f3it2O9fZ0N6ZG-35">
          <mxGeometry relative="1" as="geometry">
            <mxPoint x="1000" y="440" as="targetPoint" />
            <mxPoint x="300" y="520" as="sourcePoint" />
            <Array as="points">
              <mxPoint x="340" y="520" />
            </Array>
          </mxGeometry>
        </mxCell>
        <mxCell id="X8teT1f3it2O9fZ0N6ZG-50" style="edgeStyle=orthogonalEdgeStyle;rounded=0;orthogonalLoop=1;jettySize=auto;html=1;entryX=0.5;entryY=1;entryDx=0;entryDy=0;" edge="1" parent="1" source="X8teT1f3it2O9fZ0N6ZG-9" target="X8teT1f3it2O9fZ0N6ZG-39">
          <mxGeometry relative="1" as="geometry">
            <mxPoint x="510" y="270" as="targetPoint" />
          </mxGeometry>
        </mxCell>
        <mxCell id="X8teT1f3it2O9fZ0N6ZG-35" value="1.0.1-rc" style="rounded=1;whiteSpace=wrap;html=1;" vertex="1" parent="1">
          <mxGeometry x="450.2" y="420" width="70" height="40" as="geometry" />
        </mxCell>
        <mxCell id="X8teT1f3it2O9fZ0N6ZG-57" value="1.0.1-rc" style="rounded=1;whiteSpace=wrap;html=1;" vertex="1" parent="1">
          <mxGeometry x="570" y="100" width="70" height="40" as="geometry" />
        </mxCell>
        <mxCell id="X8teT1f3it2O9fZ0N6ZG-59" value="" style="shape=image;html=1;verticalAlign=top;verticalLabelPosition=bottom;labelBackgroundColor=#ffffff;imageAspect=0;aspect=fixed;image=https://cdn1.iconfinder.com/data/icons/unicons-line-vol-3/24/github-alt-128.png" vertex="1" parent="1">
          <mxGeometry x="470.2" y="140" width="30" height="30" as="geometry" />
        </mxCell>
        <mxCell id="X8teT1f3it2O9fZ0N6ZG-71" style="edgeStyle=orthogonalEdgeStyle;rounded=0;orthogonalLoop=1;jettySize=auto;html=1;entryX=0.5;entryY=0;entryDx=0;entryDy=0;" edge="1" parent="1" source="X8teT1f3it2O9fZ0N6ZG-66" target="X8teT1f3it2O9fZ0N6ZG-73">
          <mxGeometry relative="1" as="geometry">
            <mxPoint x="771" y="520" as="targetPoint" />
            <Array as="points">
              <mxPoint x="720" y="480" />
              <mxPoint x="775" y="480" />
            </Array>
          </mxGeometry>
        </mxCell>
        <mxCell id="X8teT1f3it2O9fZ0N6ZG-66" value="1.0.1" style="rounded=1;whiteSpace=wrap;html=1;" vertex="1" parent="1">
          <mxGeometry x="680" y="420" width="70" height="40" as="geometry" />
        </mxCell>
        <mxCell id="X8teT1f3it2O9fZ0N6ZG-67" value="" style="edgeStyle=orthogonalEdgeStyle;rounded=0;orthogonalLoop=1;jettySize=auto;html=1;entryX=0.5;entryY=1;entryDx=0;entryDy=0;" edge="1" parent="1" source="X8teT1f3it2O9fZ0N6ZG-35" target="X8teT1f3it2O9fZ0N6ZG-9">
          <mxGeometry relative="1" as="geometry">
            <mxPoint x="505" y="220" as="targetPoint" />
            <mxPoint x="485" y="420" as="sourcePoint" />
          </mxGeometry>
        </mxCell>
        <mxCell id="X8teT1f3it2O9fZ0N6ZG-9" value="" style="shape=image;html=1;verticalAlign=top;verticalLabelPosition=bottom;labelBackgroundColor=#ffffff;imageAspect=0;aspect=fixed;image=https://cdn1.iconfinder.com/data/icons/unicons-line-vol-3/24/github-alt-128.png" vertex="1" parent="1">
          <mxGeometry x="470" y="350" width="30" height="30" as="geometry" />
        </mxCell>
        <mxCell id="X8teT1f3it2O9fZ0N6ZG-69" style="edgeStyle=orthogonalEdgeStyle;rounded=0;orthogonalLoop=1;jettySize=auto;html=1;" edge="1" parent="1" source="X8teT1f3it2O9fZ0N6ZG-66">
          <mxGeometry relative="1" as="geometry">
            <mxPoint x="1000" y="440" as="targetPoint" />
          </mxGeometry>
        </mxCell>
        <mxCell id="X8teT1f3it2O9fZ0N6ZG-70" value="" style="shape=image;html=1;verticalAlign=top;verticalLabelPosition=bottom;labelBackgroundColor=#ffffff;imageAspect=0;aspect=fixed;image=https://cdn1.iconfinder.com/data/icons/unicons-line-vol-3/24/github-alt-128.png" vertex="1" parent="1">
          <mxGeometry x="1030" y="440" width="30" height="30" as="geometry" />
        </mxCell>
        <mxCell id="X8teT1f3it2O9fZ0N6ZG-72" value="" style="shape=image;html=1;verticalAlign=top;verticalLabelPosition=bottom;labelBackgroundColor=#ffffff;imageAspect=0;aspect=fixed;image=https://cdn0.iconfinder.com/data/icons/phosphor-bold-vol-3-1/256/git-pull-request-duotone-128.png" vertex="1" parent="1">
          <mxGeometry x="680" y="460" width="40" height="40" as="geometry" />
        </mxCell>
        <mxCell id="X8teT1f3it2O9fZ0N6ZG-74" value="" style="edgeStyle=orthogonalEdgeStyle;rounded=0;orthogonalLoop=1;jettySize=auto;html=1;exitX=1;exitY=0.5;exitDx=0;exitDy=0;exitPerimeter=0;" edge="1" parent="1" source="X8teT1f3it2O9fZ0N6ZG-6" target="X8teT1f3it2O9fZ0N6ZG-73">
          <mxGeometry relative="1" as="geometry">
            <mxPoint x="1000" y="520" as="targetPoint" />
            <mxPoint x="230" y="520" as="sourcePoint" />
          </mxGeometry>
        </mxCell>
        <mxCell id="X8teT1f3it2O9fZ0N6ZG-73" value="1.0.1" style="rounded=1;whiteSpace=wrap;html=1;" vertex="1" parent="1">
          <mxGeometry x="740" y="500" width="70" height="40" as="geometry" />
        </mxCell>
      </root>
    </mxGraphModel>
  </diagram>
</mxfile>
